<svg enable-background="new 0 0 432 288" viewBox="0 0 432 288" role="img" xmlns="http://www.w3.org/2000/svg"><path d="m0 209.3c0-69.4 0-138.8 0-208.2 0-.8.1-1.1 1.1-1.1h429.9c1 0 1.1.3 1.1 1.1v208.1c-.3.3-.7.5-1.2.5-.4 0-.8 0-1.2 0-142.4 0-284.8 0-427.2 0-.9 0-1.8.3-2.5-.4z" fill="#ef9767"/><path d="m432 210.2v76.8c0 .8-.1 1-1 1-143.4 0-286.7 0-430.1 0-.9 0-1-.2-1-1 0-25.6 0-51.2 0-76.8.3-.4.7-.5 1.2-.5h1.2 427.2c.9.1 1.8-.2 2.5.5z" fill="#e27d4a"/><g fill="#040707"><ellipse cx="216" cy="209.7" rx="305.4" ry=".7"/><path d="m187.9 185.8c-3-.2-5.5-1.1-8-2.3-4.1-2-8.2-4.1-12.3-6-1.2-.6-2.4-1-3.5-1.6-.6-.3-1.2-.2-1.8.1-1.9.9-3.8.5-5.7.2-3.2-.5-6-2.2-8.9-3.3-.6-.2-1.2-.3-1.8-.1-3.5 1.2-7.1 2-10.7 2.5-5.2.8-10.3.1-15.2-1.8-3.8-1.5-7.3-3.5-10-6.7-1.6-1.9-3-3.9-4.3-6-1.9-3.3-3.7-6.8-4.4-10.6-.4-2.4-2.3-3-3.8-4.3-.3-.2-.5-.6-.9-.7-.8-.2-.7-.8-.5-1.4 1.4-3.8 2.7-7.7 4.1-11.5 1.6-4.4 3.2-8.7 4.7-13.1 1.7-4.8 3.4-9.5 5-14.3.2-.5.5-.7.8-1 2.1-1.5 4.3-2.9 6.4-4.3.4-.2.5-.5.7-.9 1-2 2-3.9 2.8-5.9.5-1.2 1.3-1.7 2.6-1.5.6.1 1.1.1 1.1-.9-.1-1.3 1.1-1.8 2.9-1.4.7.2 1.3.4 2 .7 1.9.8 3.9 1 6 1 2.9 0 5.5 1.4 7.8 3.2 1 .8.1 1.6-.1 2.4-.1.4-.3.8-.4 1.2 0 .2-.3.4 0 .6.2.1.6.2.7-.2.1-.2.3-.5.2-.7-.3-1.8.8-3.2 1.2-4.8.1-.5.3-.6.8-.6 1.5 0 2.8.4 4.1 1 .8.4 1.5.4 2.4-.1 3.3-1.7 6.8-3.1 10.3-4.5 1-.4 2-.7 2.9-1.2 2.2-1.2 4.2-.7 6.3.3.2.1.4.2.5.2 1.2.5 2.1.7 2.9-.8.5-1 1.7-.8 2.6-.5 4.6 1.7 9.4 3.1 14 4.7 1.4.5 2 1.9 1.3 3.5-.2.5-.2.9 0 1.4 1.3 3.6 2.8 7.1 3.2 11 0 .5.2 1 .2 1.5.1.8.4 1.4 1.4 1.5.9.1 1.9 1.3 2.8 0 0-.1.3 0 .4 0 1 .3 2 .7 3 1 .2.1.5.1.5.4-.3 1 .5 1.1 1.2 1.4 1.7.6 1.7.6 1.3 2.4-.1.3-.1.7-.3 1-.4 1-.5 1.9.9 2.1.6.1.5.5.4 1-.6 1.7-.5 1.7 1.2 2.3l3.3 1.2c1 .4 2.2 2.8 2 3.9-.1.5-.1 1-.1 1.4.3 2.8-.6 5.3-1.6 7.9-2.8 7-5.5 14-8.3 21.1-2.3 5.9-4.7 11.8-7 17.7-1.1 2.7-2.3 5.3-3.8 7.9-1 2.2-3.2 3-5.5 3.3z"/><path d="m124.6 56.1c0-7.7 0-15.3 0-23 0-.3 0-.6 0-1 0-.2.1-.4.4-.4s.3.1.3.4v.8 46.5.2c-.1.3.3.9-.4.9-.6 0-.3-.6-.3-.9 0-7.8 0-15.7 0-23.5z"/><path d="m118.3 72.3c0-5.4 0-10.9 0-16.3 0-.3 0-.6 0-.8s.1-.4.3-.4c.3 0 .4.1.4.4v.8 32.6c0 .4.4 1.2-.3 1.2s-.3-.8-.4-1.1c0-5.6 0-11 0-16.4z"/><path d="m212.2 105.5c0-3.6 0-7.3 0-10.9 0-.2 0-.5 0-.7s0-.5.3-.5c.4 0 .4.3.4.6v.6 22 .7c0 .2 0 .5-.3.5-.4 0-.4-.3-.4-.6 0-1.6 0-3.1 0-4.7 0-2.3 0-4.6 0-7z"/><path d="m207.6 94.8v10.5.8c0 .2-.1.4-.3.4-.3 0-.4-.1-.4-.4s0-.6 0-.8c0-7 0-14.1 0-21.1 0-.2 0-.3 0-.5 0-.3-.2-.7.3-.7s.4.4.4.7v6.7z"/><path d="m133.7 74.8v8.9c0 .3.2.8-.3.8-.6 0-.4-.5-.4-.8 0-5.9 0-11.8 0-17.7 0-.3-.2-.8.3-.8.6 0 .4.5.4.8z"/><path d="m174.7 67.2c0-2.7 0-5.3 0-8 0-.3-.2-.8.4-.8s.3.5.3.8v16c0 .3.2.8-.4.8s-.3-.5-.3-.8c0-2.7 0-5.3 0-8z"/><path d="m170.4 75.5v5.1c0 .3.2.7-.4.7-.5 0-.3-.5-.3-.7 0-3.5 0-7 0-10.5 0-.3-.2-.7.4-.7.5 0 .3.5.3.7z"/><path d="m133.9 48.9v4.1c0 .3.1.6-.4.6-.4 0-.4-.3-.4-.6 0-2.7 0-5.4 0-8.1 0-.3-.1-.6.4-.6.4 0 .4.3.4.6z"/><path d="m206.6 72.9c0-1.3 0-2.5 0-3.8 0-.3-.1-.6.4-.6.4 0 .4.4.4.6v7.9c0 .3.1.6-.4.6-.4 0-.4-.4-.4-.6 0-1.4 0-2.8 0-4.1z"/><path d="m169.7 51.5v2.6c0 .2.1.6-.3.6s-.4-.3-.4-.6c0-1.9 0-3.7 0-5.6 0-.2 0-.5.3-.5.4 0 .4.3.4.6z"/><path d="m320.3 241.6c-4.3 1.3-8.7 2.4-13.1 3.4-5.2 1.3-10.5 2.6-15.7 3.8-5.9 1.3-11.8 2.5-17.7 3.7-4.3.9-8.6 1.8-12.9 2.6-3.8.7-7.7 1.3-11.6 2-3.2.5-6.4 1.2-9.6 1.6-3.5.5-7 1-10.5 1.5-3.2.5-6.4 1-9.7 1.4-2.3.3-4.6.5-6.9.8-2.5.3-5 .7-7.5.9-1.9.1-3.7.4-5.5.5-3.5.3-6.9.6-10.4.9-1.1.1-2.2.1-3.3.2-1.8.1-3.6.3-5.3.3-3.5.1-7 .4-10.5.5-1.2 0-2.4.1-3.7.2-10.7.4-21.4.3-32.1.2-4.8-.1-9.6.1-14.3-.2-2.9-.2-5.7 0-8.6-.2-4.1-.3-8.3-.4-12.4-.5-3-.1-6-.3-9-.5-3.5-.2-7-.5-10.5-.7s-7-.5-10.5-1c-4.2-.5-8.4-1-12.6-1.6-3.9-.6-7.7-1.2-11.6-2-4.2-.8-8.4-1.8-12.5-3-5.5-1.6-10.8-3.6-15.9-6.2-1.3-.6-2.7-1.2-3.4-2.5-.7-1.2-.3-2.1 1.1-3 1.9-1.1 4-1.6 6.1-1.9 3-.5 6-.8 9-1.2 1-.1 2.1-.2 3.1-.2 2.1-.1 4.1-.2 6.2-.3 4.7-.3 9.4-.3 14.1-.5 6.3-.3 12.5-.1 18.8-.2.2 0 .4 0 .6-.1-2.4-.3-4.8-.5-7.1-.8-2.8-.4-5.6-.7-8.4-1.1s-5.7-.8-8.5-1.3c-5.7-.9-11.4-2-16.9-3.9-.5-.2-1-.5-1.5-.7-.9-.5-1.6-1-1.6-2.2 0-1.1.9-1.5 1.6-1.8 2.5-1 5.1-1.6 7.7-2 2.8-.4 5.7-.8 8.5-1.2 2.2-.2 4.3-.4 6.5-.5 3.9-.1 7.8-.4 11.8-.6 2-.1 4-.1 6-.2 14.3-.5 28.6-.2 42.9-.2 4.2 0 8.5-.1 12.7.2 2.9.2 5.8-.1 8.7.2 2.6.3 5.3 0 7.9.2 4 .3 7.9.3 11.9.5 3.7.2 7.4.6 11.1.9 2.6.2 5.2.3 7.8.5 3.5.3 6.9.6 10.4.9 2.4.2 4.7.3 7.1.5l9.9.9c2.1.2 4.3.3 6.4.5 3.2.3 6.4.5 9.7.9 2 .3 4 .3 6 .5 3 .3 6 .5 9.1.9 1.9.2 3.8.3 5.7.5 3.1.3 6.2.5 9.3.9 1.9.3 3.9.3 5.8.5 2.8.3 5.5.6 8.3.9 1.8.2 3.6.3 5.4.5 2.7.3 5.5.7 8.2.9 1.7.1 3.3.3 4.9.5 2.8.3 5.6.5 8.3.9 2.4.3 4.9.5 7.3.8l7.5.9c2.2.3 4.5.5 6.7.8 2.5.3 5 .5 7.5.9.9.2 1.9.2 2.8.3.1.5.5.5.9.9z"/></g><path d="m161.5 175.2c1.2-2.7 2.5-5.2 3.5-7.8 1.3-3.4 3.7-6.1 6-8.9.8-1 1.6-2.1 2.1-3.3.3-.8.8-.9 1.5-.5.9.5 1.8.9 2.7 1.2 2.8 1.1 5.4.7 7.9-.8 1.2-.7 1.8-1.8 1.9-3 .2-1.7.2-3.5-.6-5.1-.6-1.3-1.8-1.9-2.9-2.4-1-.5-1.4-1-1.2-2.1.3-2.3.6-4.7.9-7 0-.3 0-.6 0-1 .1-1 .2-2 1.6-1.7h.4c2-1.3 3.9-.2 5.7.5 2.4.9 4.6 2.2 6.1 4.5.4.6 1.2.8 2 .9 1.8.1 3.5-.3 5.3-.7 2.1-.5 4.2-.9 6.3-1.4.7-.2.8 0 .6.6-2 4.9-3.9 9.9-5.9 14.8-2.8 7.2-5.6 14.4-8.4 21.5-.6 1.6-1.2 3.2-2.3 4.7-.8 1.1-.7 2.5-1.5 3.6-1.4 1.8-3.1 3-5.3 3.1-1.6 0-3.2-.4-4.7-1-1.7-.7-3.4-1.5-5.1-2.3-4.5-2.2-9-4.4-13.5-6.7-1.1-.4-1.9.2-3.1.3z" fill="#367b9f"/><path d="m135.6 174.1c2.8-1.1 5.5-2.3 7.9-3.9 4.5-3.1 8.2-7 10.8-11.8 2.3-4.3 3.6-8.8 3.9-13.7.7-8.5-1-16.5-4.8-24.1-2.3-4.6-5.4-8.5-10.2-10.8-1-.5-2-.8-3-1.3 1.4 0 2.7.5 4.1.8 3.6.9 7.1 1.7 10.7 2.7 3 .9 5.7 2.5 8.3 4.3 3.3 2.2 6.3 4.7 8.3 8.2 1.2 2.2 1.9 4.6 2.4 7 .7 3.1.7 6.3.4 9.4-.4 5.1-1.1 10.3-4.1 14.7-2.6 3.9-6.1 6.7-10 9.2-7.1 4.4-14.7 8-23.1 9.3-.5 0-1 .3-1.6 0z" fill="#981b48"/><path d="m101.3 142.3c-.1-7 1.5-12.9 4.1-18.6 1.7-3.8 4.6-6.6 7.7-9.3 1.4-1.2 2.8-2.2 4.3-3.3 2.1-1.6 4.5-2.3 7.1-2.5 2.6-.3 5.1-.7 7.7-.5 4.6.3 9.1 1.1 13 3.8 3.1 2.1 5.3 4.9 7.1 8.1 2.4 4.2 3.9 8.7 4.7 13.4.6 3.2 1 6.5.8 9.8-.4 5.2-1.5 10.1-4 14.7-2.4 4.4-5.7 8-9.7 11s-8.6 4.9-13.5 5.7c-1.9.3-3.8-.2-5.6-.7-3.8-.9-7.4-2.4-10.6-4.6-2.6-1.8-4.5-4.2-6.2-6.7-2.1-3.1-3.8-6.4-5.1-9.9s-2.1-7.2-1.8-10.4z" fill="#cd4e97"/><path d="m187.5 118.4c4.3 1.6 8.5 3.4 12.8 4.8 3.6 1.2 7.2 2.7 11.1 3.2h.1c.7.1 1.6-.3 1.9.2.3.6.1 1.5.1 2.2.3 2.2-.6 4.1-1.4 6-.3.9-1.1.9-1.9.9-2.4.1-4.6-.5-6.8-1.1-5.2-1.3-10.1-3.2-15.1-4.9-.7-.2-.8-.7-.7-1.3.2-.7.4-1.4.6-2.1.3-1.1.6-2.1-.6-3-.7-.5-.4-1.5-.2-2.3.3-.7.3-1.6.1-2.6z" fill="#db3285"/><path d="m167.8 161.2c.2-2 1.6-3 2.6-4.2 1.9-2.5 2.9-5.3 3.7-8.3 1.1-4.6 1.5-9.2 1.2-13.9-.4-5.1-1.6-9.9-5.1-13.9-2.6-2.9-5.7-4.9-8.9-7-3.4-2.2-7.2-3-10.9-3.9-2.8-.7-5.6-1.5-8.5-2.1-.9-.2-.7-.4-.3-.9.6-.8 1.1-1.6 1.7-2.4.7-.8 1.5-1 2.5-.5 5.3 2.3 10.7 4.6 16 6.9l11.7 5.1c1.9.8 3.7 1.9 5.8 2.1.8.1 1.2.4 1 1.6-.5 3.2-1 6.4-1.6 9.6-.4 2.8-1 5.5-1.5 8.3-.4 2.4-.8 4.8-1.1 7.2-.8 5-2.6 9.5-5.7 13.4-.9.9-1.7 1.8-2.6 2.9z" fill="#7ec6ab"/><path d="m195.8 108.9c-.8.1-1.8-.3-2.1.9-.1.4-.8 0-1-.2-2.3-1.2-4.9-1.1-7.3-1.6-1.7-.3-3.4-.7-5.1-.8-.6 0-1-.4-1.3-1.1-1.1-2.2-1.3-4.5-1.5-6.9s-.6-4.8-.9-7.2c-.1-.6.1-1.3-.2-2 5.7 3.1 11.1 6.2 16.7 9.2.9.5 1.1 1.3 1.3 2.1.3 2.4.8 5 1.4 7.6z" fill="#7ec6ab"/><path d="m104.8 122.1c1.2-3.5 2.5-7 3.7-10.4.8-2.1 1.6-4.2 2.3-6.3.2-.5.5-.9.8-1.1 1.8-1.3 3.8-2.5 5.6-3.8.6-.5 1.1-.4 1.7-.1 2.9 1.4 5.7 2.8 8.6 4.3.6.3.9.3 1.3-.3.7-1.3 1.6-2.4 3.1-3 2.3-.9 5.4.2 6.6 2.5.1.2.3.4.3.6.3.9 1 2 .6 2.7-.3.5-1.6-.1-2.5-.2-3.2-.3-6.3-.4-9.5-.1-3.1.3-6.1 1-8.8 2.6-2.3 1.3-4.3 2.9-6.3 4.6-2.9 2.2-5.2 5.1-7.5 8z" fill="#367b9f"/><path d="m176.8 101.6c-2.1-2-4.8-2.3-7.3-3.3-5-2-10.2-3.8-15.5-5.7 1.6-.7 3.1-1.4 4.6-2 2.5-1 5-2 7.4-3.1 1.4-.6 2.6-.6 4 0 1.3.6 2.7 1.1 4.1 1.5.9.3 1.4.9 1.5 1.9.3 2.4.4 4.7.8 7.1.2 1 .1 2.3.4 3.6z" fill="#367b9f"/><path d="m146.4 98.5c-1.1 1.5-1 3.6-2.9 4.6-1.2.6-1.8 1.9-2.6 2.9-.2.2-.2.6-.6.5s-.2-.5-.2-.7c-.5-1.9-1.3-3.7-3.2-4.7-3-1.5-6.2-1-8.2 2.1-.4.7-.7.8-1.5.4-2.6-1.3-5.2-2.6-7.8-3.8-.7-.3-.8-.6-.4-1.3 1-1.9 1.9-3.8 2.9-5.7.5-1 1.9-1.3 2.7-.6 1.8 1.9 4.2 2.5 6.6 3 1.5.3 2.6 1.3 3.9 1.7 2.1.6 4 1.6 6.3 1.4.4 0 .7.1 1 .2.9.3 1.7.6 1.9-.8 0-.3.4-.6.7-.3.4.6 1.2.3 1.4 1.1z" fill="#db3285"/><path d="m148 171.9c6.8-2.9 13.2-6.1 18.8-11.1-.4 1.8-1.1 3.1-1.7 4.5-1.4 3.2-2.9 6.3-4.2 9.5-.3.7-.7.9-1.4.9-2.5-.3-4.9-.8-7.2-1.9-1.3-.7-2.7-1.2-4.3-1.9z" fill="#7ec6ab"/><path d="m183.6 155.2c.7-1.4 1.4-2.8 1.2-4.4-.2-1.7-.7-3.2-2.3-4.2-.9-.6-1.9-1.2-2.8-1.8-.5-.3-.7-.6-.6-1.2.8-5.7 1.4-11.3 2.3-17 .4-2.5.9-4.9 1.2-7.4 0-.2 0-.4 0-.6-.2-1.2.1-1.5 1.3-1.3.3.1.5.2.8.2 1.9.2 2.6 1.2 2.2 3.1-.2.9 0 1.7-.3 2.6-.1.4.3.6.6.8.7.5.9 1.1.3 2-.1-.1-.1-.2-.2-.3-.3-1.2-1-2-2.4-2-1.1 0-2.4 1.1-2.7 2.2-.6 2.2-1 4.4.4 6.6.5.8 0 1.8-.1 2.7-.3 2.9-.7 5.7-1.1 8.6-.1.5.2.7.6.9.7.4 1.4.8 2.1 1.2 2.3 1.3 2.4 3.5 2.3 5.7-.1 1.8-1.1 3-2.8 3.6z" fill="#761233"/><path d="m147.6 98.1c.3-1.2.6-2.3 1.9-3 .9-.4 1.6-1.1 2.5-1.6.9-.6 1.7-.5 2.6-.1 4.6 1.7 9.2 3.5 13.8 5.2 2 .8 4.1 1.5 6.1 2.3s2.5 2.8 3.4 4.6c.7 1.4.6 2.8 0 4.2-.4 1.1-.6 2.3-1.1 3.3-.5 1.2-.6 2.3.2 3.7-1.2-.5-2.3-.9-3.4-1.4-5.8-2.5-11.5-5-17.3-7.6-3.4-1.5-6.8-2.9-10.2-4.4-.5-.2-1-.4-.5-1.2.4-.7.6-1.5 1.1-2.1.2.1.4.3.3.5-.5 1.2.4 1.5 1.2 1.8 8.6 3.7 17.1 7.4 25.7 11.1 1.2.5 1.3.5 1.7-.7.5-1.7 1.1-3.4 1.6-5.1.2-.6.2-1.1-.1-1.6-.7-1.7-1.7-3-3.6-3.8-6.3-2.4-12.7-4.8-19-7.3-1.2-.5-2.1-.5-3.2.3s-2.6 1.2-3.1 2.7c-.1.3-.3.4-.6.2z" fill="#f2c23e"/><path d="m177.3 114.4c.6-2 1.2-4.1 1.8-6.1.1-.4.3-.5.8-.4 3.3.6 6.6 1 9.9 1.5.5.1.5.2.4.6-.1 1.8-.8 3.3-1.4 5-.3.9-.8.9-1.5.9-2.9-.4-5.8-.8-8.6-1.2-.6 0-1-.2-1.4-.3z" fill="#367b9f"/><path d="m174.8 152c1.3 2.4 3.1 3.2 4.8 2.3 1.5-.9 2.1-3 1.2-4.3-1.1-1.6-3.3-2.1-5.1-.5 1.2-4.5 1.5-9.1 2.4-13.7.7-3.8 1.4-7.5 2.1-11.3.3-2 .7-4 .8-6.1 0-.2-.3-.5.1-.5.3-.1.6.2.6.5 0 .9.2 1.7 0 2.6-1 4.6-1.4 9.2-2.2 13.8-.5 2.9-.6 5.9-1.1 8.8-.2.9-.1 1.5 1 2.1 1.9.9 3.9 2 4.5 4.3.7 2.8-1 5.5-3.8 6.1-.4.1-.8 0-1.2-.2-1.1-.5-2.3-.8-3.4-1.3-1.6-.8-1.6-.9-.7-2.6z" fill="#db3285"/><path d="m207.1 119.2c-.2.8-.5 1.6-.7 2.4-.1.5-.5.4-.8.3-5.5-1.2-10.9-2.8-15.9-5.5-.4-.2-.5-.4-.3-.8s.4-.8.6-1.3c.7-1.6 1-1.8 2.5-.9 3.1 1.8 6.4 2.8 9.7 3.9 1.4.5 2.8.9 4.2 1.3.5.1.7.2.7.6z" fill="#7ec6ab"/><path d="m207.6 136.4c-2.7.5-5.2 1.6-8 1.6-1 0-1.6-.3-2.3-1.2-1.7-2.1-3.9-3.5-6.4-4.4-1.3-.5-2.7-.8-4-1.1-.3-.1-.5 0-.8.2-1.7 1.4-3.4 1-3.6-1.3-.2-1.8-.1-3.7 1.5-5.1.9-.8 1.7-.7 2.2.3.7 1.2 1.1 2.4.6 3.8-.2.6.1.9.6 1.1 5.5 1.9 11 4 16.7 5.4 1.1.3 2.2.8 3.5.7z" fill="#7ec6ab"/><path d="m147.6 98.1c.7-2 2.6-2.6 4.1-3.6 1.1-.8 2-.2 3 .1 6.4 2.4 12.8 4.9 19.3 7.3 2.7 1 4.1 3.9 3.2 6.6-.5 1.7-1 3.3-1.5 5-.2.8-.6.9-1.2.6-3-1.3-6.1-2.6-9.1-3.9-4.4-1.9-8.9-3.7-13.3-5.7-1.8-.8-3.6-1.6-5.5-2.4-.5-.2-.6-.5-.4-.9s.5-.7.4-1.2c.5-.5.8-1.1 1-1.9z" fill="#040707"/><path d="m204.6 117.1c-1.5-.5-3.3-1-5.1-1.6s-3.5-1.3-5.2-2.1c-.7-.4-.8-.7-.5-1.4.8-2.3.8-2.4 3.2-1.7.8.2 1.6.5 2.4.7.5.1.9.4 1.5-.2.5-.6 2.7.4 2.8 1.2.1.5.3.6.7.8 2.2.9 2.2.9 1.5 3.4-.4 1-.4 1-1.3.9z" fill="#761233"/><path d="m213.6 125.7c-2 .3-3.9-.3-5.7-.8-5-1.4-9.9-3.2-14.7-5.1-2.3-.9-4.5-1.9-6.8-2.6-1.3-.4-2.7-.7-4.1-.3-1.3.3-2.7 0-4 .2-.7.1-.8-1-.8-1.5 0-.8.6-.1.8-.1 3.3.3 6.6.9 9.9 1.2 1.2.1 2.4.9 3.5 1.5 4.3 2.3 9.1 3.3 13.8 4.4.4.1 1.1.2 1.3-.3.4-1 1.1-.6 1.6-.3.8.4 1.7.6 2.5.9 1.4.5 2.3 1.4 2.7 2.8z" fill="#f2c23e"/><path d="m176.8 86.7c.2 0 .5.1.8.2 4.2 1.4 8.5 2.9 12.7 4.3.6.2 1.1.4 1.6.8.7.6.5 1.3.2 2s-1 .5-1.6.3c-4.8-1.8-9.7-3.6-14.5-5.4-.4-.2-1.3-.1-1.1-.8.3-.7.7-1.5 1.9-1.4z" fill="#761233"/><path d="m100.7 146.8c-1.3-.6-2.3-1.6-3.4-2.3-.3-.2-.4-.4-.2-.8 1.5-4.1 3-8.3 4.6-12.4-1.3 5-1.3 10.2-1 15.5z" fill="#367b9f"/><path d="m134.6 91.2c3.1.2 5.4 1.4 7.7 2.8.6.4.4.9.2 1.5-.2.7-.7.5-1.2.3-2.3-.8-4.7-1.3-7-2.3-.5-.2-1.3-.1-1.1-1.1.3-.9.8-1.4 1.4-1.2z" fill="#761233"/><path d="m178.1 153.8c-1.3 0-2.4-1.1-2.4-2.3 0-1.3 1.2-2.3 2.5-2.2 1.2 0 2.3 1.1 2.3 2.3s-1.1 2.2-2.4 2.2z" fill="#761233"/><path d="m140.7 97.7c-2.8-.4-5.4-1.4-7.9-2.7-.3-.2-.4-.4-.2-.8s.4-.4.7-.3c2.4 1 5 1.7 7.5 2.5.4.1 1 .1.9.8 0 .9-.6.3-1 .5z" fill="#7ec6ab"/><path d="m192.8 98.1c-3.7-2-7.1-3.9-10.5-5.8 0-.1 0-.1.1-.2 1.3.4 2.6.9 3.8 1.3 1.6.6 3.2 1.3 4.9 1.8 1.3.5 1.3 1.6 1.7 2.9z" fill="#f2c23e"/><path d="m126.6 89.5c2 .3 3.9 1.1 5.7 1.8.3.1.4.3.2.6s-.2.9-.9.8c-2-.4-3.9-1.2-5.8-2.1-.3-.1-.4-.4-.3-.7.2-.4.7-.4 1.1-.4z" fill="#761233"/><path d="m150.1 93.6c-1.6 1.4-3 1.4-4.5.2-.4-.3-.2-.6-.1-.9.2-.6.7-.5 1.1-.4.2 0 .3.1.4.2 1 .2 2 .5 3.1.9z" fill="#761233"/><path d="m125.3 91.2c2 1 3.8 1.9 5.9 2.3.1 0 1-.2.7.6-.2.6-.5.4-1 .3-1.6-.4-3.1-.9-4.6-1.7-.5-.3-1-.6-1-1.5z" fill="#7ec6ab"/><path d="m146.7 97.4c-.7-.1-2.3-1.2-2.1-1.6s0-1.2.8-1.3c.3 0 2.5 1.1 2.4 1.2-.5.7-.5 1.4-1.1 1.7z" fill="#7ec6ab"/><path d="m190.8 111c.1-.3-.2-1.2.6-1 .6.1 1.6.2 1.7 1.1.1.4.1 1.4-.8 1.3-.6-.2-1.7.2-1.5-1.4z" fill="#367b9f"/><path d="m138.5 108h1.3v.4c-.4-.1-.9 0-1.3-.4z" fill="#981b48"/><path d="m138.5 108c-.3 0-.6 0-1.2 0 .6-.3.9-.3 1.2 0z" fill="#981b48"/><path d="m315.8 241.8c-3.7 1-7.2 1.9-10.7 2.7-13 3.2-26.1 6-39.3 8.6-6.6 1.3-13.2 2.5-19.8 3.5-5.4.8-10.7 1.8-16.1 2.6-3.9.6-7.9 1-11.8 1.5-3.7.5-7.3 1-11 1.4-2.8.3-5.5.5-8.3.8-3.2.3-6.5.6-9.7.9-1.2.1-2.4.2-3.6.2-3.3.1-6.7.4-10 .6-4.2.2-8.4.3-12.7.5-9.3.4-18.6.2-27.9.1-4.9 0-9.8 0-14.7-.2-2.8-.2-5.7 0-8.5-.2-4.1-.2-8.2-.3-12.3-.5-3-.1-6-.4-9.1-.4-1 0-1.5-.4-1.5-1.6.1-6.9 0-13.8 0-20.6 0-.8.2-1.8-1.2-.9-.3.2-.9.1-1.3.1-2.7-.2-5.5-.4-8.2-.7-3.4-.3-6.7-.7-10.1-1.1-2.8-.3-5.7-.7-8.5-1-5-.6-10-1.4-14.9-2.3-3.4-.6-6.8-1.4-10.2-2.3-1.7-.4-3.3-1.1-4.8-1.9-1.1-.6-1.1-1 0-1.7 2-1.2 4.2-1.5 6.5-2 3.8-.7 7.7-1.2 11.6-1.5 3.6-.3 7.2-.5 10.8-.7 4.6-.2 9.2-.3 13.9-.5 13.6-.5 27.3-.2 40.9-.1 3.9 0 7.9-.1 11.8.2 3 .2 6 0 9 .2 4.8.3 9.6.3 14.3.5 4.4.2 8.8.4 13.2.9 2.6.3 5.2.3 7.9.5 3.5.3 7 .6 10.4.9 2.4.2 4.8.3 7.1.5 3.4.3 6.7.6 10.1.9 2.1.2 4.2.3 6.3.5 3.4.3 6.7.6 10.1.9 3 .3 5.9.5 8.9.8 2.9.3 5.8.6 8.8.9 1.9.2 3.9.3 5.8.5 3 .3 6.1.6 9.1.9 2.7.3 5.4.5 8.1.8s5.4.6 8.2.9c2.6.3 5.2.5 7.8.8 3.4.4 6.8.8 10.2 1.1 2.4.3 4.9.5 7.3.8 3.3.4 6.6.8 9.9 1.1 2.4.3 4.8.5 7.2.8 3 .3 5.9.7 8.9 1.1.5 0 1.2 0 2.1.2z" fill="#7b1315"/><path d="m87.9 252.6v9.8c0 .9-.3 1.2-1.1 1.1-3.6-.4-7.2-.5-10.8-.9-1.9-.2-3.8-.3-5.7-.5-2.8-.3-5.5-.6-8.2-.9-3.4-.4-6.8-.9-10.2-1.5-5.6-.9-11.1-2-16.6-3.4-6.5-1.8-12.9-3.9-18.9-7.1-1-.5-1.8-1.2-2.5-1.9-.4-.4-.3-.6 0-1 .9-1 2.2-1.3 3.4-1.6 3.6-.9 7.3-1.4 11-1.7 3.5-.3 7-.6 10.6-.7 4.1-.2 8.2-.3 12.3-.5 10.3-.4 20.5-.1 30.8-.2 1.8 0 3.5.4 5.2.2.8-.1.8.4.8 1-.2 3.2-.1 6.5-.1 9.8z" fill="#aa2123"/><path d="m190.3 145.4c-2.4 0-4-1.6-4-4 0-2.5 1.7-4.1 4.1-4.2 2 0 4.2 1.8 4 4.3-.1 2.4-1.6 3.9-4.1 3.9z" fill="#040707"/><path d="m152.9 140.8c-.2 7.4-1.9 14.3-6.3 20.4-3.3 4.6-7.5 8.3-13.2 9.8-4.8 1.3-9.7 1.4-14.3-.9-8.9-4.4-14.5-11.4-16.5-21.2-.7-3.5-.9-7-.7-10.5.3-3.8 1.2-7.5 2.8-11 1.6-3.6 3.8-6.8 6.6-9.5 3.9-3.8 8.5-6 14-6.5 5.9-.6 11 1.2 15.6 4.9 3.3 2.6 5.7 5.9 7.8 9.5 1.9 3.1 3 6.5 3.7 10.1.5 1.5.6 3.2.5 4.9z" fill="#040707"/><path d="m176.9 107c-.6 1.9-1.2 4.1-1.9 6.2-.2.5-.6.1-.8 0-1.9-.8-3.8-1.7-5.7-2.5-5.1-2.2-10.2-4.4-15.3-6.6-1.8-.8-3.6-1.6-5.4-2.3-.6-.3-.6-.6-.4-1.1.4-.8.9-1.6 1.1-2.5.4-1.5 1.8-1.7 2.7-2.6 1.5-1.4 2.9-.5 4.3.1 6.1 2.3 12.3 4.7 18.4 7 1.1.5 3 3 3 4.3z" fill="#db3285"/><path d="m190.2 144.7c-2 0-3.3-1.4-3.3-3.4 0-1.8 1.7-3.3 3.4-3.3 1.8.1 3.2 1.6 3.3 3.4.2 1.5-1.6 3.7-3.4 3.3z" fill="#761233"/><path d="m102.7 141.8c0-7.9 2.2-14.5 6.6-20.3 3.8-5 8.8-8.4 15.1-9.4 5.9-.9 11.1.7 15.8 4.4 4.4 3.5 7.5 8 9.8 13.1 1 2.3 1.6 4.8 2 7.3.9 7.3-.6 14.1-3.9 20.5-3 5.9-7.6 10.4-14 12.5-6.9 2.3-13.3 1.1-19.1-3.4-3.6-2.8-6.6-6-8.7-10.1-1.6-3-2.6-6.2-2.9-9.7-.4-1.7-.8-3.5-.7-4.9z" fill="#ee6f90"/><path d="m148.6 140.8c.2 4.5-.9 8.6-2.5 12.6-1.5 3.7-4.4 6.1-7.7 8.2-1.9 1.3-3.9 2.4-6.2 2.8-3.3.6-6.5.4-9.6-.9-7.3-3-11.2-8.8-13.3-16.1-.7-2.4-1.1-4.8-.9-7.3.4-5.1 1.1-10.2 4.2-14.5 2.9-4 6.8-6.4 11.4-7.9 5.7-1.9 10.7-.8 15.2 3.1 4.8 4.1 7.8 9.3 9.3 15.4.2 1.4.1 3.1.1 4.6z" fill="#040707"/><path d="m146.5 148.9c-.8 4.2-2.7 7.6-6.1 10.1-2.2 1.7-4.4 3.3-7.1 4.2-4.6 1.6-8.9.7-12.9-1.7-6.4-3.8-9.6-9.7-11-16.7-1.1-5.7 0-11.2 2.2-16.5 1.4-3.2 3.9-5.5 6.8-7.4 3.1-2 6.5-3.3 10.1-3.5s6.6 1.3 9.4 3.4c2.8 2.2 4.9 5 6.7 8.2-1.5-1-3.1-1.5-4.8-1.8-2.7-.5-5.2 0-7.3 1.6-3.6 2.8-5.7 6.6-5.5 11.1.2 4.8 2.2 9 6.6 11.5 3.4 1.9 7.8 2 11.1-.8.7-.6 1.4-.9 1.8-1.7z" fill="#f2c23e"/><path d="m147.6 140.2c.1 2.3.1 4.6-.8 6.5-2.4 5.1-8.4 6.9-13.4 3.5-3.2-2.2-4.8-5.4-5.5-9.2-.8-4.6 3.1-11.7 7.9-13 3.6-1 8.3.4 10.2 4.2 1.2 2.7 1.7 5.3 1.6 8z" fill="#7ec6ab"
/></svg>
