<?xml version="1.0" encoding="utf-8"?>
<!-- Generator: Adobe Illustrator 24.0.3, SVG Export Plug-In . SVG Version: 6.00 Build 0)  -->
<!DOCTYPE svg PUBLIC "-//W3C//DTD SVG 1.1//EN" "http://www.w3.org/Graphics/SVG/1.1/DTD/svg11.dtd" [
	<!ENTITY st0 "fill:#EF9767;">
	<!ENTITY st1 "fill:#E27D4A;">
	<!ENTITY st2 "fill:#040707;">
	<!ENTITY st3 "fill:#367B9F;">
	<!ENTITY st4 "fill:#981B48;">
	<!ENTITY st5 "fill:#CD4E97;">
	<!ENTITY st6 "fill:#DB3285;">
	<!ENTITY st7 "fill:#7EC6AB;">
	<!ENTITY st8 "fill:#761233;">
	<!ENTITY st9 "fill:#F2C23E;">
	<!ENTITY st10 "fill:#7B1315;">
	<!ENTITY st11 "fill:#AA2123;">
	<!ENTITY st12 "fill:#EE6F90;">
]>
<svg version="1.1" id="Layer_1" xmlns="http://www.w3.org/2000/svg" xmlns:xlink="http://www.w3.org/1999/xlink" x="0px" y="0px" viewBox="0 0 432 288" style="enable-background:new 0 0 432 288;" xml:space="preserve">
<g>
	<path style="&st0;" d="M0,209.3C0,139.9,0,70.5,0,1.1C0,0.3,0.1,0,1.1,0c143.3,0,286.6,0,429.9,0c1,0,1.1,0.3,1.1,1.1
		c0,69.4,0,138.8,0,208.1c-0.3,0.3-0.7,0.5-1.2,0.5c-0.4,0-0.8,0-1.2,0c-142.4,0-284.8,0-427.2,0C1.6,209.7,0.7,210,0,209.3z"/>
	<path style="&st1;" d="M432,210.2c0,25.6,0,51.2,0,76.8c0,0.8-0.1,1-1,1c-143.4,0-286.7,0-430.1,0c-0.9,0-1-0.2-1-1
		c0-25.6,0-51.2,0-76.8c0.3-0.4,0.7-0.5,1.2-0.5c0.4,0,0.8,0,1.2,0c142.4,0,284.8,0,427.2,0C430.4,209.8,431.3,209.5,432,210.2z"/>
	<ellipse style="&st2;" cx="216" cy="209.7" rx="305.4" ry="0.7"/>
	<path style="&st2;" d="M187.9,185.8c-3-0.2-5.5-1.1-8-2.3c-4.1-2-8.2-4.1-12.3-6c-1.2-0.6-2.4-1-3.5-1.6c-0.6-0.3-1.2-0.2-1.8,0.1
		c-1.9,0.9-3.8,0.5-5.7,0.2c-3.2-0.5-6-2.2-8.9-3.3c-0.6-0.2-1.2-0.3-1.8-0.1c-3.5,1.2-7.1,2-10.7,2.5c-5.2,0.8-10.3,0.1-15.2-1.8
		c-3.8-1.5-7.3-3.5-10-6.7c-1.6-1.9-3-3.9-4.3-6c-1.9-3.3-3.7-6.8-4.4-10.6c-0.4-2.4-2.3-3-3.8-4.3c-0.3-0.2-0.5-0.6-0.9-0.7
		c-0.8-0.2-0.7-0.8-0.5-1.4c1.4-3.8,2.7-7.7,4.1-11.5c1.6-4.4,3.2-8.7,4.7-13.1c1.7-4.8,3.4-9.5,5-14.3c0.2-0.5,0.5-0.7,0.8-1
		c2.1-1.5,4.3-2.9,6.4-4.3c0.4-0.2,0.5-0.5,0.7-0.9c1-2,2-3.9,2.8-5.9c0.5-1.2,1.3-1.7,2.6-1.5c0.6,0.1,1.1,0.1,1.1-0.9
		c-0.1-1.3,1.1-1.8,2.9-1.4c0.7,0.2,1.3,0.4,2,0.7c1.9,0.8,3.9,1,6,1c2.9,0,5.5,1.4,7.8,3.2c1,0.8,0.1,1.6-0.1,2.4
		c-0.1,0.4-0.3,0.8-0.4,1.2c0,0.2-0.3,0.4,0,0.6c0.2,0.1,0.6,0.2,0.7-0.2c0.1-0.2,0.3-0.5,0.2-0.7c-0.3-1.8,0.8-3.2,1.2-4.8
		c0.1-0.5,0.3-0.6,0.8-0.6c1.5,0,2.8,0.4,4.1,1c0.8,0.4,1.5,0.4,2.4-0.1c3.3-1.7,6.8-3.1,10.3-4.5c1-0.4,2-0.7,2.9-1.2
		c2.2-1.2,4.2-0.7,6.3,0.3c0.2,0.1,0.4,0.2,0.5,0.2c1.2,0.5,2.1,0.7,2.9-0.8c0.5-1,1.7-0.8,2.6-0.5c4.6,1.7,9.4,3.1,14,4.7
		c1.4,0.5,2,1.9,1.3,3.5c-0.2,0.5-0.2,0.9,0,1.4c1.3,3.6,2.8,7.1,3.2,11c0,0.5,0.2,1,0.2,1.5c0.1,0.8,0.4,1.4,1.4,1.5
		c0.9,0.1,1.9,1.3,2.8,0c0-0.1,0.3,0,0.4,0c1,0.3,2,0.7,3,1c0.2,0.1,0.5,0.1,0.5,0.4c-0.3,1,0.5,1.1,1.2,1.4
		c1.7,0.6,1.7,0.6,1.3,2.4c-0.1,0.3-0.1,0.7-0.3,1c-0.4,1-0.5,1.9,0.9,2.1c0.6,0.1,0.5,0.5,0.4,1c-0.6,1.7-0.5,1.7,1.2,2.3
		c1.1,0.4,2.2,0.8,3.3,1.2c1,0.4,2.2,2.8,2,3.9c-0.1,0.5-0.1,1-0.1,1.4c0.3,2.8-0.6,5.3-1.6,7.9c-2.8,7-5.5,14-8.3,21.1
		c-2.3,5.9-4.7,11.8-7,17.7c-1.1,2.7-2.3,5.3-3.8,7.9C192.4,184.7,190.2,185.5,187.9,185.8z"/>
	<path style="&st2;" d="M124.6,56.1c0-7.7,0-15.3,0-23c0-0.3,0-0.6,0-1c0-0.2,0.1-0.4,0.4-0.4c0.3,0,0.3,0.1,0.3,0.4
		c0,0.3,0,0.6,0,0.8c0,15.5,0,31,0,46.5c0,0.1,0,0.2,0,0.2c-0.1,0.3,0.3,0.9-0.4,0.9c-0.6,0-0.3-0.6-0.3-0.9
		C124.6,71.8,124.6,63.9,124.6,56.1z"/>
	<path style="&st2;" d="M118.3,72.3c0-5.4,0-10.9,0-16.3c0-0.3,0-0.6,0-0.8c0-0.2,0.1-0.4,0.3-0.4c0.3,0,0.4,0.1,0.4,0.4
		c0,0.3,0,0.6,0,0.8c0,10.9,0,21.7,0,32.6c0,0.4,0.4,1.2-0.3,1.2c-0.7,0-0.3-0.8-0.4-1.1C118.3,83.1,118.3,77.7,118.3,72.3z"/>
	<path style="&st2;" d="M212.2,105.5c0-3.6,0-7.3,0-10.9c0-0.2,0-0.5,0-0.7c0-0.2,0-0.5,0.3-0.5c0.4,0,0.4,0.3,0.4,0.6
		c0,0.2,0,0.4,0,0.6c0,7.3,0,14.7,0,22c0,0.2,0,0.5,0,0.7c0,0.2,0,0.5-0.3,0.5c-0.4,0-0.4-0.3-0.4-0.6c0-1.6,0-3.1,0-4.7
		C212.2,110.2,212.2,107.9,212.2,105.5z"/>
	<path style="&st2;" d="M207.6,94.8c0,3.5,0,7,0,10.5c0,0.3,0,0.6,0,0.8c0,0.2-0.1,0.4-0.3,0.4c-0.3,0-0.4-0.1-0.4-0.4
		c0-0.3,0-0.6,0-0.8c0-7,0-14.1,0-21.1c0-0.2,0-0.3,0-0.5c0-0.3-0.2-0.7,0.3-0.7c0.5,0,0.4,0.4,0.4,0.7c0,2.2,0,4.5,0,6.7
		C207.6,91.9,207.6,93.4,207.6,94.8z"/>
	<path style="&st2;" d="M133.7,74.8c0,3,0,5.9,0,8.9c0,0.3,0.2,0.8-0.3,0.8c-0.6,0-0.4-0.5-0.4-0.8c0-5.9,0-11.8,0-17.7
		c0-0.3-0.2-0.8,0.3-0.8c0.6,0,0.4,0.5,0.4,0.8C133.7,68.9,133.7,71.8,133.7,74.8z"/>
	<path style="&st2;" d="M174.7,67.2c0-2.7,0-5.3,0-8c0-0.3-0.2-0.8,0.4-0.8c0.6,0,0.3,0.5,0.3,0.8c0,5.3,0,10.7,0,16
		c0,0.3,0.2,0.8-0.4,0.8c-0.6,0-0.3-0.5-0.3-0.8C174.7,72.5,174.7,69.9,174.7,67.2z"/>
	<path style="&st2;" d="M170.4,75.5c0,1.7,0,3.4,0,5.1c0,0.3,0.2,0.7-0.4,0.7c-0.5,0-0.3-0.5-0.3-0.7c0-3.5,0-7,0-10.5
		c0-0.3-0.2-0.7,0.4-0.7c0.5,0,0.3,0.5,0.3,0.7C170.4,71.9,170.4,73.7,170.4,75.5z"/>
	<path style="&st2;" d="M133.9,48.9c0,1.4,0,2.7,0,4.1c0,0.3,0.1,0.6-0.4,0.6c-0.4,0-0.4-0.3-0.4-0.6c0-2.7,0-5.4,0-8.1
		c0-0.3-0.1-0.6,0.4-0.6c0.4,0,0.4,0.3,0.4,0.6C133.9,46.1,133.9,47.5,133.9,48.9z"/>
	<path style="&st2;" d="M206.6,72.9c0-1.3,0-2.5,0-3.8c0-0.3-0.1-0.6,0.4-0.6c0.4,0,0.4,0.4,0.4,0.6c0,2.6,0,5.3,0,7.9
		c0,0.3,0.1,0.6-0.4,0.6c-0.4,0-0.4-0.4-0.4-0.6C206.6,75.6,206.6,74.2,206.6,72.9z"/>
	<path style="&st2;" d="M169.7,51.5c0,0.9,0,1.7,0,2.6c0,0.2,0.1,0.6-0.3,0.6c-0.4,0-0.4-0.3-0.4-0.6c0-1.9,0-3.7,0-5.6
		c0-0.2,0-0.5,0.3-0.5c0.4,0,0.4,0.3,0.4,0.6C169.7,49.5,169.7,50.5,169.7,51.5z"/>
	<path style="&st2;" d="M320.3,241.6c-4.3,1.3-8.7,2.4-13.1,3.4c-5.2,1.3-10.5,2.6-15.7,3.8c-5.9,1.3-11.8,2.5-17.7,3.7
		c-4.3,0.9-8.6,1.8-12.9,2.6c-3.8,0.7-7.7,1.3-11.6,2c-3.2,0.5-6.4,1.2-9.6,1.6c-3.5,0.5-7,1-10.5,1.5c-3.2,0.5-6.4,1-9.7,1.4
		c-2.3,0.3-4.6,0.5-6.9,0.8c-2.5,0.3-5,0.7-7.5,0.9c-1.9,0.1-3.7,0.4-5.5,0.5c-3.5,0.3-6.9,0.6-10.4,0.9c-1.1,0.1-2.2,0.1-3.3,0.2
		c-1.8,0.1-3.6,0.3-5.3,0.3c-3.5,0.1-7,0.4-10.5,0.5c-1.2,0-2.4,0.1-3.7,0.2c-10.7,0.4-21.4,0.3-32.1,0.2c-4.8-0.1-9.6,0.1-14.3-0.2
		c-2.9-0.2-5.7,0-8.6-0.2c-4.1-0.3-8.3-0.4-12.4-0.5c-3-0.1-6-0.3-9-0.5c-3.5-0.2-7-0.5-10.5-0.7c-3.5-0.2-7-0.5-10.5-1
		c-4.2-0.5-8.4-1-12.6-1.6c-3.9-0.6-7.7-1.2-11.6-2c-4.2-0.8-8.4-1.8-12.5-3c-5.5-1.6-10.8-3.6-15.9-6.2c-1.3-0.6-2.7-1.2-3.4-2.5
		c-0.7-1.2-0.3-2.1,1.1-3c1.9-1.1,4-1.6,6.1-1.9c3-0.5,6-0.8,9-1.2c1-0.1,2.1-0.2,3.1-0.2c2.1-0.1,4.1-0.2,6.2-0.3
		c4.7-0.3,9.4-0.3,14.1-0.5c6.3-0.3,12.5-0.1,18.8-0.2c0.2,0,0.4,0,0.6-0.1c-2.4-0.3-4.8-0.5-7.1-0.8c-2.8-0.4-5.6-0.7-8.4-1.1
		c-2.8-0.4-5.7-0.8-8.5-1.3c-5.7-0.9-11.4-2-16.9-3.9c-0.5-0.2-1-0.5-1.5-0.7c-0.9-0.5-1.6-1-1.6-2.2c0-1.1,0.9-1.5,1.6-1.8
		c2.5-1,5.1-1.6,7.7-2c2.8-0.4,5.7-0.8,8.5-1.2c2.2-0.2,4.3-0.4,6.5-0.5c3.9-0.1,7.8-0.4,11.8-0.6c2-0.1,4-0.1,6-0.2
		c14.3-0.5,28.6-0.2,42.9-0.2c4.2,0,8.5-0.1,12.7,0.2c2.9,0.2,5.8-0.1,8.7,0.2c2.6,0.3,5.3,0,7.9,0.2c4,0.3,7.9,0.3,11.9,0.5
		c3.7,0.2,7.4,0.6,11.1,0.9c2.6,0.2,5.2,0.3,7.8,0.5c3.5,0.3,6.9,0.6,10.4,0.9c2.4,0.2,4.7,0.3,7.1,0.5c3.3,0.3,6.6,0.6,9.9,0.9
		c2.1,0.2,4.3,0.3,6.4,0.5c3.2,0.3,6.4,0.5,9.7,0.9c2,0.3,4,0.3,6,0.5c3,0.3,6,0.5,9.1,0.9c1.9,0.2,3.8,0.3,5.7,0.5
		c3.1,0.3,6.2,0.5,9.3,0.9c1.9,0.3,3.9,0.3,5.8,0.5c2.8,0.3,5.5,0.6,8.3,0.9c1.8,0.2,3.6,0.3,5.4,0.5c2.7,0.3,5.5,0.7,8.2,0.9
		c1.7,0.1,3.3,0.3,4.9,0.5c2.8,0.3,5.6,0.5,8.3,0.9c2.4,0.3,4.9,0.5,7.3,0.8c2.5,0.3,5,0.6,7.5,0.9c2.2,0.3,4.5,0.5,6.7,0.8
		c2.5,0.3,5,0.5,7.5,0.9c0.9,0.2,1.9,0.2,2.8,0.3C319.5,241.2,319.9,241.2,320.3,241.6z"/>
	<path style="&st3;" d="M161.5,175.2c1.2-2.7,2.5-5.2,3.5-7.8c1.3-3.4,3.7-6.1,6-8.9c0.8-1,1.6-2.1,2.1-3.3c0.3-0.8,0.8-0.9,1.5-0.5
		c0.9,0.5,1.8,0.9,2.7,1.2c2.8,1.1,5.4,0.7,7.9-0.8c1.2-0.7,1.8-1.8,1.9-3c0.2-1.7,0.2-3.5-0.6-5.1c-0.6-1.3-1.8-1.9-2.9-2.4
		c-1-0.5-1.4-1-1.2-2.1c0.3-2.3,0.6-4.7,0.9-7c0-0.3,0-0.6,0-1c0.1-1,0.2-2,1.6-1.7c0.1,0,0.3,0,0.4,0c2-1.3,3.9-0.2,5.7,0.5
		c2.4,0.9,4.6,2.2,6.1,4.5c0.4,0.6,1.2,0.8,2,0.9c1.8,0.1,3.5-0.3,5.3-0.7c2.1-0.5,4.2-0.9,6.3-1.4c0.7-0.2,0.8,0,0.6,0.6
		c-2,4.9-3.9,9.9-5.9,14.8c-2.8,7.2-5.6,14.4-8.4,21.5c-0.6,1.6-1.2,3.2-2.3,4.7c-0.8,1.1-0.7,2.5-1.5,3.6c-1.4,1.8-3.1,3-5.3,3.1
		c-1.6,0-3.2-0.4-4.7-1c-1.7-0.7-3.4-1.5-5.1-2.3c-4.5-2.2-9-4.4-13.5-6.7C163.5,174.5,162.7,175.1,161.5,175.2z"/>
	<path style="&st4;" d="M135.6,174.1c2.8-1.1,5.5-2.3,7.9-3.9c4.5-3.1,8.2-7,10.8-11.8c2.3-4.3,3.6-8.8,3.9-13.7
		c0.7-8.5-1-16.5-4.8-24.1c-2.3-4.6-5.4-8.5-10.2-10.8c-1-0.5-2-0.8-3-1.3c1.4,0,2.7,0.5,4.1,0.8c3.6,0.9,7.1,1.7,10.7,2.7
		c3,0.9,5.7,2.5,8.3,4.3c3.3,2.2,6.3,4.7,8.3,8.2c1.2,2.2,1.9,4.6,2.4,7c0.7,3.1,0.7,6.3,0.4,9.4c-0.4,5.1-1.1,10.3-4.1,14.7
		c-2.6,3.9-6.1,6.7-10,9.2c-7.1,4.4-14.7,8-23.1,9.3C136.7,174.1,136.2,174.4,135.6,174.1z"/>
	<path style="&st5;" d="M101.3,142.3c-0.1-7,1.5-12.9,4.1-18.6c1.7-3.8,4.6-6.6,7.7-9.3c1.4-1.2,2.8-2.2,4.3-3.3
		c2.1-1.6,4.5-2.3,7.1-2.5c2.6-0.3,5.1-0.7,7.7-0.5c4.6,0.3,9.1,1.1,13,3.8c3.1,2.1,5.3,4.9,7.1,8.1c2.4,4.2,3.9,8.7,4.7,13.4
		c0.6,3.2,1,6.5,0.8,9.8c-0.4,5.2-1.5,10.1-4,14.7c-2.4,4.4-5.7,8-9.7,11c-4,3-8.6,4.9-13.5,5.7c-1.9,0.3-3.8-0.2-5.6-0.7
		c-3.8-0.9-7.4-2.4-10.6-4.6c-2.6-1.8-4.5-4.2-6.2-6.7c-2.1-3.1-3.8-6.4-5.1-9.9C101.8,149.2,101,145.5,101.3,142.3z"/>
	<path style="&st6;" d="M187.5,118.4c4.3,1.6,8.5,3.4,12.8,4.8c3.6,1.2,7.2,2.7,11.1,3.2c0,0,0.1,0,0.1,0c0.7,0.1,1.6-0.3,1.9,0.2
		c0.3,0.6,0.1,1.5,0.1,2.2c0.3,2.2-0.6,4.1-1.4,6c-0.3,0.9-1.1,0.9-1.9,0.9c-2.4,0.1-4.6-0.5-6.8-1.1c-5.2-1.3-10.1-3.2-15.1-4.9
		c-0.7-0.2-0.8-0.7-0.7-1.3c0.2-0.7,0.4-1.4,0.6-2.1c0.3-1.1,0.6-2.1-0.6-3c-0.7-0.5-0.4-1.5-0.2-2.3
		C187.7,120.3,187.7,119.4,187.5,118.4z"/>
	<path style="&st7;" d="M167.8,161.2c0.2-2,1.6-3,2.6-4.2c1.9-2.5,2.9-5.3,3.7-8.3c1.1-4.6,1.5-9.2,1.2-13.9
		c-0.4-5.1-1.6-9.9-5.1-13.9c-2.6-2.9-5.7-4.9-8.9-7c-3.4-2.2-7.2-3-10.9-3.9c-2.8-0.7-5.6-1.5-8.5-2.1c-0.9-0.2-0.7-0.4-0.3-0.9
		c0.6-0.8,1.1-1.6,1.7-2.4c0.7-0.8,1.5-1,2.5-0.5c5.3,2.3,10.7,4.6,16,6.9c3.9,1.7,7.8,3.4,11.7,5.1c1.9,0.8,3.7,1.9,5.8,2.1
		c0.8,0.1,1.2,0.4,1,1.6c-0.5,3.2-1,6.4-1.6,9.6c-0.4,2.8-1,5.5-1.5,8.3c-0.4,2.4-0.8,4.8-1.1,7.2c-0.8,5-2.6,9.5-5.7,13.4
		C169.5,159.2,168.7,160.1,167.8,161.2z"/>
	<path style="&st7;" d="M195.8,108.9c-0.8,0.1-1.8-0.3-2.1,0.9c-0.1,0.4-0.8,0-1-0.2c-2.3-1.2-4.9-1.1-7.3-1.6
		c-1.7-0.3-3.4-0.7-5.1-0.8c-0.6,0-1-0.4-1.3-1.1c-1.1-2.2-1.3-4.5-1.5-6.9c-0.2-2.4-0.6-4.8-0.9-7.2c-0.1-0.6,0.1-1.3-0.2-2
		c5.7,3.1,11.1,6.2,16.7,9.2c0.9,0.5,1.1,1.3,1.3,2.1C194.7,103.7,195.2,106.3,195.8,108.9z"/>
	<path style="&st3;" d="M104.8,122.1c1.2-3.5,2.5-7,3.7-10.4c0.8-2.1,1.6-4.2,2.3-6.3c0.2-0.5,0.5-0.9,0.8-1.1
		c1.8-1.3,3.8-2.5,5.6-3.8c0.6-0.5,1.1-0.4,1.7-0.1c2.9,1.4,5.7,2.8,8.6,4.3c0.6,0.3,0.9,0.3,1.3-0.3c0.7-1.3,1.6-2.4,3.1-3
		c2.3-0.9,5.4,0.2,6.6,2.5c0.1,0.2,0.3,0.4,0.3,0.6c0.3,0.9,1,2,0.6,2.7c-0.3,0.5-1.6-0.1-2.5-0.2c-3.2-0.3-6.3-0.4-9.5-0.1
		c-3.1,0.3-6.1,1-8.8,2.6c-2.3,1.3-4.3,2.9-6.3,4.6C109.4,116.3,107.1,119.2,104.8,122.1z"/>
	<path style="&st3;" d="M176.8,101.6c-2.1-2-4.8-2.3-7.3-3.3c-5-2-10.2-3.8-15.5-5.7c1.6-0.7,3.1-1.4,4.6-2c2.5-1,5-2,7.4-3.1
		c1.4-0.6,2.6-0.6,4,0c1.3,0.6,2.7,1.1,4.1,1.5c0.9,0.3,1.4,0.9,1.5,1.9c0.3,2.4,0.4,4.7,0.8,7.1C176.6,99,176.5,100.3,176.8,101.6z
		"/>
	<path style="&st6;" d="M146.4,98.5c-1.1,1.5-1,3.6-2.9,4.6c-1.2,0.6-1.8,1.9-2.6,2.9c-0.2,0.2-0.2,0.6-0.6,0.5
		c-0.4-0.1-0.2-0.5-0.2-0.7c-0.5-1.9-1.3-3.7-3.2-4.7c-3-1.5-6.2-1-8.2,2.1c-0.4,0.7-0.7,0.8-1.5,0.4c-2.6-1.3-5.2-2.6-7.8-3.8
		c-0.7-0.3-0.8-0.6-0.4-1.3c1-1.9,1.9-3.8,2.9-5.7c0.5-1,1.9-1.3,2.7-0.6c1.8,1.9,4.2,2.5,6.6,3c1.5,0.3,2.6,1.3,3.9,1.7
		c2.1,0.6,4,1.6,6.3,1.4c0.4,0,0.7,0.1,1,0.2c0.9,0.3,1.7,0.6,1.9-0.8c0-0.3,0.4-0.6,0.7-0.3C145.4,98,146.2,97.7,146.4,98.5z"/>
	<path style="&st7;" d="M148,171.9c6.8-2.9,13.2-6.1,18.8-11.1c-0.4,1.8-1.1,3.1-1.7,4.5c-1.4,3.2-2.9,6.3-4.2,9.5
		c-0.3,0.7-0.7,0.9-1.4,0.9c-2.5-0.3-4.9-0.8-7.2-1.9C151,173.1,149.6,172.6,148,171.9z"/>
	<path style="&st8;" d="M183.6,155.2c0.7-1.4,1.4-2.8,1.2-4.4c-0.2-1.7-0.7-3.2-2.3-4.2c-0.9-0.6-1.9-1.2-2.8-1.8
		c-0.5-0.3-0.7-0.6-0.6-1.2c0.8-5.7,1.4-11.3,2.3-17c0.4-2.5,0.9-4.9,1.2-7.4c0-0.2,0-0.4,0-0.6c-0.2-1.2,0.1-1.5,1.3-1.3
		c0.3,0.1,0.5,0.2,0.8,0.2c1.9,0.2,2.6,1.2,2.2,3.1c-0.2,0.9,0,1.7-0.3,2.6c-0.1,0.4,0.3,0.6,0.6,0.8c0.7,0.5,0.9,1.1,0.3,2
		c-0.1-0.1-0.1-0.2-0.2-0.3c-0.3-1.2-1-2-2.4-2c-1.1,0-2.4,1.1-2.7,2.2c-0.6,2.2-1,4.4,0.4,6.6c0.5,0.8,0,1.8-0.1,2.7
		c-0.3,2.9-0.7,5.7-1.1,8.6c-0.1,0.5,0.2,0.7,0.6,0.9c0.7,0.4,1.4,0.8,2.1,1.2c2.3,1.3,2.4,3.5,2.3,5.7
		C186.3,153.4,185.3,154.6,183.6,155.2z"/>
	<path style="&st9;" d="M147.6,98.1c0.3-1.2,0.6-2.3,1.9-3c0.9-0.4,1.6-1.1,2.5-1.6c0.9-0.6,1.7-0.5,2.6-0.1
		c4.6,1.7,9.2,3.5,13.8,5.2c2,0.8,4.1,1.5,6.1,2.3c2,0.8,2.5,2.8,3.4,4.6c0.7,1.4,0.6,2.8,0,4.2c-0.4,1.1-0.6,2.3-1.1,3.3
		c-0.5,1.2-0.6,2.3,0.2,3.7c-1.2-0.5-2.3-0.9-3.4-1.4c-5.8-2.5-11.5-5-17.3-7.6c-3.4-1.5-6.8-2.9-10.2-4.4c-0.5-0.2-1-0.4-0.5-1.2
		c0.4-0.7,0.6-1.5,1.1-2.1c0.2,0.1,0.4,0.3,0.3,0.5c-0.5,1.2,0.4,1.5,1.2,1.8c8.6,3.7,17.1,7.4,25.7,11.1c1.2,0.5,1.3,0.5,1.7-0.7
		c0.5-1.7,1.1-3.4,1.6-5.1c0.2-0.6,0.2-1.1-0.1-1.6c-0.7-1.7-1.7-3-3.6-3.8c-6.3-2.4-12.7-4.8-19-7.3c-1.2-0.5-2.1-0.5-3.2,0.3
		c-1.1,0.8-2.6,1.2-3.1,2.7C148.1,98.2,147.9,98.3,147.6,98.1z"/>
	<path style="&st3;" d="M177.3,114.4c0.6-2,1.2-4.1,1.8-6.1c0.1-0.4,0.3-0.5,0.8-0.4c3.3,0.6,6.6,1,9.9,1.5c0.5,0.1,0.5,0.2,0.4,0.6
		c-0.1,1.8-0.8,3.3-1.4,5c-0.3,0.9-0.8,0.9-1.5,0.9c-2.9-0.4-5.8-0.8-8.6-1.2C178.1,114.7,177.7,114.5,177.3,114.4z"/>
	<path style="&st6;" d="M174.8,152c1.3,2.4,3.1,3.2,4.8,2.3c1.5-0.9,2.1-3,1.2-4.3c-1.1-1.6-3.3-2.1-5.1-0.5
		c1.2-4.5,1.5-9.1,2.4-13.7c0.7-3.8,1.4-7.5,2.1-11.3c0.3-2,0.7-4,0.8-6.1c0-0.2-0.3-0.5,0.1-0.5c0.3-0.1,0.6,0.2,0.6,0.5
		c0,0.9,0.2,1.7,0,2.6c-1,4.6-1.4,9.2-2.2,13.8c-0.5,2.9-0.6,5.9-1.1,8.8c-0.2,0.9-0.1,1.5,1,2.1c1.9,0.9,3.9,2,4.5,4.3
		c0.7,2.8-1,5.5-3.8,6.1c-0.4,0.1-0.8,0-1.2-0.2c-1.1-0.5-2.3-0.8-3.4-1.3C173.9,153.8,173.9,153.7,174.8,152z"/>
	<path style="&st7;" d="M207.1,119.2c-0.2,0.8-0.5,1.6-0.7,2.4c-0.1,0.5-0.5,0.4-0.8,0.3c-5.5-1.2-10.9-2.8-15.9-5.5
		c-0.4-0.2-0.5-0.4-0.3-0.8c0.2-0.4,0.4-0.8,0.6-1.3c0.7-1.6,1-1.8,2.5-0.9c3.1,1.8,6.4,2.8,9.7,3.9c1.4,0.5,2.8,0.9,4.2,1.3
		C206.9,118.7,207.1,118.8,207.1,119.2z"/>
	<path style="&st7;" d="M207.6,136.4c-2.7,0.5-5.2,1.6-8,1.6c-1,0-1.6-0.3-2.3-1.2c-1.7-2.1-3.9-3.5-6.4-4.4c-1.3-0.5-2.7-0.8-4-1.1
		c-0.3-0.1-0.5,0-0.8,0.2c-1.7,1.4-3.4,1-3.6-1.3c-0.2-1.8-0.1-3.7,1.5-5.1c0.9-0.8,1.7-0.7,2.2,0.3c0.7,1.2,1.1,2.4,0.6,3.8
		c-0.2,0.6,0.1,0.9,0.6,1.1c5.5,1.9,11,4,16.7,5.4C205.2,136,206.3,136.5,207.6,136.4z"/>
	<path style="&st2;" d="M147.6,98.1c0.7-2,2.6-2.6,4.1-3.6c1.1-0.8,2-0.2,3,0.1c6.4,2.4,12.8,4.9,19.3,7.3c2.7,1,4.1,3.9,3.2,6.6
		c-0.5,1.7-1,3.3-1.5,5c-0.2,0.8-0.6,0.9-1.2,0.6c-3-1.3-6.1-2.6-9.1-3.9c-4.4-1.9-8.9-3.7-13.3-5.7c-1.8-0.8-3.6-1.6-5.5-2.4
		c-0.5-0.2-0.6-0.5-0.4-0.9c0.2-0.4,0.5-0.7,0.4-1.2C147.1,99.5,147.4,98.9,147.6,98.1z"/>
	<path style="&st8;" d="M204.6,117.1c-1.5-0.5-3.3-1-5.1-1.6c-1.8-0.6-3.5-1.3-5.2-2.1c-0.7-0.4-0.8-0.7-0.5-1.4
		c0.8-2.3,0.8-2.4,3.2-1.7c0.8,0.2,1.6,0.5,2.4,0.7c0.5,0.1,0.9,0.4,1.5-0.2c0.5-0.6,2.7,0.4,2.8,1.2c0.1,0.5,0.3,0.6,0.7,0.8
		c2.2,0.9,2.2,0.9,1.5,3.4C205.5,117.2,205.5,117.2,204.6,117.1z"/>
	<path style="&st9;" d="M213.6,125.7c-2,0.3-3.9-0.3-5.7-0.8c-5-1.4-9.9-3.2-14.7-5.1c-2.3-0.9-4.5-1.9-6.8-2.6
		c-1.3-0.4-2.7-0.7-4.1-0.3c-1.3,0.3-2.7,0-4,0.2c-0.7,0.1-0.8-1-0.8-1.5c0-0.8,0.6-0.1,0.8-0.1c3.3,0.3,6.6,0.9,9.9,1.2
		c1.2,0.1,2.4,0.9,3.5,1.5c4.3,2.3,9.1,3.3,13.8,4.4c0.4,0.1,1.1,0.2,1.3-0.3c0.4-1,1.1-0.6,1.6-0.3c0.8,0.4,1.7,0.6,2.5,0.9
		C212.3,123.4,213.2,124.3,213.6,125.7z"/>
	<path style="&st8;" d="M176.8,86.7c0.2,0,0.5,0.1,0.8,0.2c4.2,1.4,8.5,2.9,12.7,4.3c0.6,0.2,1.1,0.4,1.6,0.8c0.7,0.6,0.5,1.3,0.2,2
		c-0.3,0.7-1,0.5-1.6,0.3c-4.8-1.8-9.7-3.6-14.5-5.4c-0.4-0.2-1.3-0.1-1.1-0.8C175.2,87.4,175.6,86.6,176.8,86.7z"/>
	<path style="&st3;" d="M100.7,146.8c-1.3-0.6-2.3-1.6-3.4-2.3c-0.3-0.2-0.4-0.4-0.2-0.8c1.5-4.1,3-8.3,4.6-12.4
		C100.4,136.3,100.4,141.5,100.7,146.8z"/>
	<path style="&st8;" d="M134.6,91.2c3.1,0.2,5.4,1.4,7.7,2.8c0.6,0.4,0.4,0.9,0.2,1.5c-0.2,0.7-0.7,0.5-1.2,0.3
		c-2.3-0.8-4.7-1.3-7-2.3c-0.5-0.2-1.3-0.1-1.1-1.1C133.5,91.5,134,91,134.6,91.2z"/>
	<path style="&st8;" d="M178.1,153.8c-1.3,0-2.4-1.1-2.4-2.3c0-1.3,1.2-2.3,2.5-2.2c1.2,0,2.3,1.1,2.3,2.3
		C180.5,152.8,179.4,153.8,178.1,153.8z"/>
	<path style="&st7;" d="M140.7,97.7c-2.8-0.4-5.4-1.4-7.9-2.7c-0.3-0.2-0.4-0.4-0.2-0.8c0.2-0.4,0.4-0.4,0.7-0.3
		c2.4,1,5,1.7,7.5,2.5c0.4,0.1,1,0.1,0.9,0.8C141.7,98.1,141.1,97.5,140.7,97.7z"/>
	<path style="&st9;" d="M192.8,98.1c-3.7-2-7.1-3.9-10.5-5.8c0-0.1,0-0.1,0.1-0.2c1.3,0.4,2.6,0.9,3.8,1.3c1.6,0.6,3.2,1.3,4.9,1.8
		C192.4,95.7,192.4,96.8,192.8,98.1z"/>
	<path style="&st8;" d="M126.6,89.5c2,0.3,3.9,1.1,5.7,1.8c0.3,0.1,0.4,0.3,0.2,0.6c-0.2,0.3-0.2,0.9-0.9,0.8
		c-2-0.4-3.9-1.2-5.8-2.1c-0.3-0.1-0.4-0.4-0.3-0.7C125.7,89.5,126.2,89.5,126.6,89.5z"/>
	<path style="&st8;" d="M150.1,93.6c-1.6,1.4-3,1.4-4.5,0.2c-0.4-0.3-0.2-0.6-0.1-0.9c0.2-0.6,0.7-0.5,1.1-0.4
		c0.2,0,0.3,0.1,0.4,0.2C148,92.9,149,93.2,150.1,93.6z"/>
	<path style="&st7;" d="M125.3,91.2c2,1,3.8,1.9,5.9,2.3c0.1,0,1-0.2,0.7,0.6c-0.2,0.6-0.5,0.4-1,0.3c-1.6-0.4-3.1-0.9-4.6-1.7
		C125.8,92.4,125.3,92.1,125.3,91.2z"/>
	<path style="&st7;" d="M146.7,97.4c-0.7-0.1-2.3-1.2-2.1-1.6c0.2-0.4,0-1.2,0.8-1.3c0.3,0,2.5,1.1,2.4,1.2
		C147.3,96.4,147.3,97.1,146.7,97.4z"/>
	<path style="&st3;" d="M190.8,111c0.1-0.3-0.2-1.2,0.6-1c0.6,0.1,1.6,0.2,1.7,1.1c0.1,0.4,0.1,1.4-0.8,1.3
		C191.7,112.2,190.6,112.6,190.8,111z"/>
	<path style="&st4;" d="M138.5,108c0.4,0,0.9,0,1.3,0c0,0.1,0,0.3,0,0.4C139.4,108.3,138.9,108.4,138.5,108L138.5,108z"/>
	<path style="&st4;" d="M138.5,108c-0.3,0-0.6,0-1.2,0C137.9,107.7,138.2,107.7,138.5,108C138.5,108,138.5,108,138.5,108z"/>
	<path style="&st10;" d="M315.8,241.8c-3.7,1-7.2,1.9-10.7,2.7c-13,3.2-26.1,6-39.3,8.6c-6.6,1.3-13.2,2.5-19.8,3.5
		c-5.4,0.8-10.7,1.8-16.1,2.6c-3.9,0.6-7.9,1-11.8,1.5c-3.7,0.5-7.3,1-11,1.4c-2.8,0.3-5.5,0.5-8.3,0.8c-3.2,0.3-6.5,0.6-9.7,0.9
		c-1.2,0.1-2.4,0.2-3.6,0.2c-3.3,0.1-6.7,0.4-10,0.6c-4.2,0.2-8.4,0.3-12.7,0.5c-9.3,0.4-18.6,0.2-27.9,0.1c-4.9,0-9.8,0-14.7-0.2
		c-2.8-0.2-5.7,0-8.5-0.2c-4.1-0.2-8.2-0.3-12.3-0.5c-3-0.1-6-0.4-9.1-0.4c-1,0-1.5-0.4-1.5-1.6c0.1-6.9,0-13.8,0-20.6
		c0-0.8,0.2-1.8-1.2-0.9c-0.3,0.2-0.9,0.1-1.3,0.1c-2.7-0.2-5.5-0.4-8.2-0.7c-3.4-0.3-6.7-0.7-10.1-1.1c-2.8-0.3-5.7-0.7-8.5-1
		c-5-0.6-10-1.4-14.9-2.3c-3.4-0.6-6.8-1.4-10.2-2.3c-1.7-0.4-3.3-1.1-4.8-1.9c-1.1-0.6-1.1-1,0-1.7c2-1.2,4.2-1.5,6.5-2
		c3.8-0.7,7.7-1.2,11.6-1.5c3.6-0.3,7.2-0.5,10.8-0.7c4.6-0.2,9.2-0.3,13.9-0.5c13.6-0.5,27.3-0.2,40.9-0.1c3.9,0,7.9-0.1,11.8,0.2
		c3,0.2,6,0,9,0.2c4.8,0.3,9.6,0.3,14.3,0.5c4.4,0.2,8.8,0.4,13.2,0.9c2.6,0.3,5.2,0.3,7.9,0.5c3.5,0.3,7,0.6,10.4,0.9
		c2.4,0.2,4.8,0.3,7.1,0.5c3.4,0.3,6.7,0.6,10.1,0.9c2.1,0.2,4.2,0.3,6.3,0.5c3.4,0.3,6.7,0.6,10.1,0.9c3,0.3,5.9,0.5,8.9,0.8
		c2.9,0.3,5.8,0.6,8.8,0.9c1.9,0.2,3.9,0.3,5.8,0.5c3,0.3,6.1,0.6,9.1,0.9c2.7,0.3,5.4,0.5,8.1,0.8c2.7,0.3,5.4,0.6,8.2,0.9
		c2.6,0.3,5.2,0.5,7.8,0.8c3.4,0.4,6.8,0.8,10.2,1.1c2.4,0.3,4.9,0.5,7.3,0.8c3.3,0.4,6.6,0.8,9.9,1.1c2.4,0.3,4.8,0.5,7.2,0.8
		c3,0.3,5.9,0.7,8.9,1.1C314.2,241.6,314.9,241.6,315.8,241.8z"/>
	<path style="&st11;" d="M87.9,252.6c0,3.3,0,6.6,0,9.8c0,0.9-0.3,1.2-1.1,1.1c-3.6-0.4-7.2-0.5-10.8-0.9c-1.9-0.2-3.8-0.3-5.7-0.5
		c-2.8-0.3-5.5-0.6-8.2-0.9c-3.4-0.4-6.8-0.9-10.2-1.5c-5.6-0.9-11.1-2-16.6-3.4c-6.5-1.8-12.9-3.9-18.9-7.1c-1-0.5-1.8-1.2-2.5-1.9
		c-0.4-0.4-0.3-0.6,0-1c0.9-1,2.2-1.3,3.4-1.6c3.6-0.9,7.3-1.4,11-1.7c3.5-0.3,7-0.6,10.6-0.7c4.1-0.2,8.2-0.3,12.3-0.5
		c10.3-0.4,20.5-0.1,30.8-0.2c1.8,0,3.5,0.4,5.2,0.2c0.8-0.1,0.8,0.4,0.8,1C87.8,246,87.9,249.3,87.9,252.6z"/>
	<path style="&st2;" d="M190.3,145.4c-2.4,0-4-1.6-4-4c0-2.5,1.7-4.1,4.1-4.2c2,0,4.2,1.8,4,4.3
		C194.3,143.9,192.8,145.4,190.3,145.4z"/>
	<path style="&st2;" d="M152.9,140.8c-0.2,7.4-1.9,14.3-6.3,20.4c-3.3,4.6-7.5,8.3-13.2,9.8c-4.8,1.3-9.7,1.4-14.3-0.9
		c-8.9-4.4-14.5-11.4-16.5-21.2c-0.7-3.5-0.9-7-0.7-10.5c0.3-3.8,1.2-7.5,2.8-11c1.6-3.6,3.8-6.8,6.6-9.5c3.9-3.8,8.5-6,14-6.5
		c5.9-0.6,11,1.2,15.6,4.9c3.3,2.6,5.7,5.9,7.8,9.5c1.9,3.1,3,6.5,3.7,10.1C152.9,137.4,153,139.1,152.9,140.8z"/>
	<path style="&st6;" d="M176.9,107c-0.6,1.9-1.2,4.1-1.9,6.2c-0.2,0.5-0.6,0.1-0.8,0c-1.9-0.8-3.8-1.7-5.7-2.5
		c-5.1-2.2-10.2-4.4-15.3-6.6c-1.8-0.8-3.6-1.6-5.4-2.3c-0.6-0.3-0.6-0.6-0.4-1.1c0.4-0.8,0.9-1.6,1.1-2.5c0.4-1.5,1.8-1.7,2.7-2.6
		c1.5-1.4,2.9-0.5,4.3,0.1c6.1,2.3,12.3,4.7,18.4,7C175,103.2,176.9,105.7,176.9,107z"/>
	<path style="&st8;" d="M190.2,144.7c-2,0-3.3-1.4-3.3-3.4c0-1.8,1.7-3.3,3.4-3.3c1.8,0.1,3.2,1.6,3.3,3.4
		C193.8,142.9,192,145.1,190.2,144.7z"/>
	<path style="&st12;" d="M102.7,141.8c0-7.9,2.2-14.5,6.6-20.3c3.8-5,8.8-8.4,15.1-9.4c5.9-0.9,11.1,0.7,15.8,4.4
		c4.4,3.5,7.5,8,9.8,13.1c1,2.3,1.6,4.8,2,7.3c0.9,7.3-0.6,14.1-3.9,20.5c-3,5.9-7.6,10.4-14,12.5c-6.9,2.3-13.3,1.1-19.1-3.4
		c-3.6-2.8-6.6-6-8.7-10.1c-1.6-3-2.6-6.2-2.9-9.7C103,145,102.6,143.2,102.7,141.8z"/>
	<path style="&st2;" d="M148.6,140.8c0.2,4.5-0.9,8.6-2.5,12.6c-1.5,3.7-4.4,6.1-7.7,8.2c-1.9,1.3-3.9,2.4-6.2,2.8
		c-3.3,0.6-6.5,0.4-9.6-0.9c-7.3-3-11.2-8.8-13.3-16.1c-0.7-2.4-1.1-4.8-0.9-7.3c0.4-5.1,1.1-10.2,4.2-14.5c2.9-4,6.8-6.4,11.4-7.9
		c5.7-1.9,10.7-0.8,15.2,3.1c4.8,4.1,7.8,9.3,9.3,15.4C148.7,137.6,148.6,139.3,148.6,140.8z"/>
	<path style="&st9;" d="M146.5,148.9c-0.8,4.2-2.7,7.6-6.1,10.1c-2.2,1.7-4.4,3.3-7.1,4.2c-4.6,1.6-8.9,0.7-12.9-1.7
		c-6.4-3.8-9.6-9.7-11-16.7c-1.1-5.7,0-11.2,2.2-16.5c1.4-3.2,3.9-5.5,6.8-7.4c3.1-2,6.5-3.3,10.1-3.5c3.6-0.2,6.6,1.3,9.4,3.4
		c2.8,2.2,4.9,5,6.7,8.2c-1.5-1-3.1-1.5-4.8-1.8c-2.7-0.5-5.2,0-7.3,1.6c-3.6,2.8-5.7,6.6-5.5,11.1c0.2,4.8,2.2,9,6.6,11.5
		c3.4,1.9,7.8,2,11.1-0.8C145.4,150,146.1,149.7,146.5,148.9z"/>
	<path style="&st7;" d="M147.6,140.2c0.1,2.3,0.1,4.6-0.8,6.5c-2.4,5.1-8.4,6.9-13.4,3.5c-3.2-2.2-4.8-5.4-5.5-9.2
		c-0.8-4.6,3.1-11.7,7.9-13c3.6-1,8.3,0.4,10.2,4.2C147.2,134.9,147.7,137.5,147.6,140.2z"/>
</g>
</svg>
